PathFileType	3	(X/Y/Z)	F:\ViconData\AntennenMessung\Messung1\Session1\ID14.trc
DataRate	CameraRate	NumFrames	NumMarkers	Units	OrigDataRate	OrigDataStartFrame	OrigNumFrames
120.0	120.0	6	70	mm	120.0	486	1940	
Frame#	Time	Ashort			Along			Atop			A4			Bshort			Blong			Btop			B4			Cshort			Clong			Ctop			C4			Dshort			Dlong			Dtop			D4			Eshort			Elong			Etop			E4			Fshort			Flong			Ftop			F4			Gshort			Glong			Gtop			G4			Hshort			Hlong			Htop			H4			I1			I2			I3			I4			I5			WandAshort			WandAlong			WandAtop			WandA4			WandA15			WandBshort			WandB4			WandB5			WandBtop			WandBlong			WandCshort			WandClong			WandCtop			WandC4			WandC5			Acenter			Aantenna			Bcenter			Bantenna			Ccenter			Cantenna			Dcenter			Dantenna			Ecenter			Eantenna			Fcenter			Fantenna			Gcenter			Gantenna			Hcenter			Hantenna			Icenter			Iantenna			
		X1	Y1	Z1	X2	Y2	Z2	X3	Y3	Z3	X4	Y4	Z4	X5	Y5	Z5	X6	Y6	Z6	X7	Y7	Z7	X8	Y8	Z8	X9	Y9	Z9	X10	Y10	Z10	X11	Y11	Z11	X12	Y12	Z12	X13	Y13	Z13	X14	Y14	Z14	X15	Y15	Z15	X16	Y16	Z16	X17	Y17	Z17	X18	Y18	Z18	X19	Y19	Z19	X20	Y20	Z20	X21	Y21	Z21	X22	Y22	Z22	X23	Y23	Z23	X24	Y24	Z24	X25	Y25	Z25	X26	Y26	Z26	X27	Y27	Z27	X28	Y28	Z28	X29	Y29	Z29	X30	Y30	Z30	X31	Y31	Z31	X32	Y32	Z32	X33	Y33	Z33	X34	Y34	Z34	X35	Y35	Z35	X36	Y36	Z36	X37	Y37	Z37	X38	Y38	Z38	X39	Y39	Z39	X40	Y40	Z40	X41	Y41	Z41	X42	Y42	Z42	X43	Y43	Z43	X44	Y44	Z44	X45	Y45	Z45	X46	Y46	Z46	X47	Y47	Z47	X48	Y48	Z48	X49	Y49	Z49	X50	Y50	Z50	X51	Y51	Z51	X52	Y52	Z52	X53	Y53	Z53	X54	Y54	Z54	X55	Y55	Z55	X56	Y56	Z56	X57	Y57	Z57	X58	Y58	Z58	X59	Y59	Z59	X60	Y60	Z60	X61	Y61	Z61	X62	Y62	Z62	X63	Y63	Z63	X64	Y64	Z64	X65	Y65	Z65	X66	Y66	Z66	X67	Y67	Z67	X68	Y68	Z68	X69	Y69	Z69	X70	Y70	Z70	
486	4.0416667	-1038.2286	214.57848	-1644.0646	-1109.4056	204.19124	-1599.3967	-1063.5316	172.99402	-1625.8552	-1054.1495	262.31253	-1634.8643	-1352.6465	235.21758	1003.4955	-1281.3102	227.41603	1052.2513	-1322.6909	193.97383	1020.8536	-1284.351	287.97849	1052.6726	813.98425	187.68056	1209.4601	892.29657	178.55141	1179.0205	844.59967	145.32867	1198.3793	861.01141	292.30316	1168.3131	1115.8386	209.76901	-1401.6628	1056.3674	194.14961	-1460.2015	1095.478	162.87971	-1423.6877	1069.7535	239.01617	-1425.9109	-1204.6196	1686.0929	-1563.0834	-1129.1344	1688.3966	-1606.2546	-1173.162	1724.4501	-1581.9368	-1134.0111	1581.0521	-1603.8267	-1239.5933	1699.0856	1119.4735	-1309.3687	1698.8228	1071.9513	-1270.2781	1736.1089	1096.8429	-1245.5747	1592.7448	1110.6748	988.8465	1664.198	1162.1802	957.2757	1700.5629	1183.8175	921.6629	1662.4094	1214.8398	939.86865	1659.4119	1159.8158	999.16577	1668.4553	-1579.3597	1058.8674	1670.0466	-1518.7141	1025.0668	1708.0883	-1551.132	1059.334	1672.1667	-1585.3687	-238.09773	1170.4108	-194.63959	-153.37517	1173.0503	-193.86349	-201.06401	1208.9028	-193.90105	-202.31003	1171.2927	-162.71535	-200.5892	1172.8599	-241.65123																																														-1068.4727	210.16481	-1625.0845	-1073.6105	248.81659	-1624.2833	-1321.3231	231.79196	1024.9038	-1319.9216	270.54517	1029.0541	848.20807	183.69095	1196.1575	851.85425	222.45515	1193.9124	1089.166	202.76378	-1427.917	1083.103	241.0748	-1431.9796	-1171.9313	1687.0905	-1581.7784	-1170.6472	1648.1118	-1581.6133	-1270.9883	1698.9672	1098.0911	-1271.7334	1659.9963	1099.4008	952.65302	1705.8873	1186.9857	972.7226	1734.0443	1168.947	1026.5356	1669.1848	-1551.557	1028.0071	1630.215	-1551.9832	-199.89828	1171.6007	-194.28966	-198.68019	1132.6218	-194.69576
487	4.05	-1038.241	214.664	-1644.0969	-1109.3918	204.1111	-1599.3616	-1063.5291	172.99806	-1625.8872	-1054.1708	262.29425	-1634.8718	-1352.6177	234.52951	1003.9848	-1281.3534	227.42249	1052.2386	-1322.7229	193.99901	1020.8524	-1284.2786	288.01218	1052.59	813.97998	187.65326	1209.4663	892.33966	178.56349	1179.0269	844.57233	145.38506	1198.3438	861.11932	292.21155	1168.2679	1115.9133	210.07521	-1401.826	1056.3813	194.12766	-1460.1473	1095.4224	162.78316	-1423.6833	1069.7612	238.95988	-1425.9003	-1204.6189	1686.1095	-1563.0824	-1129.151	1688.3602	-1606.2269	-1173.2003	1724.3809	-1581.8623	-1134.0194	1581.0474	-1603.8135	-1239.5564	1699.0286	1119.4496	-1309.4034	1698.8606	1071.9595	-1270.3165	1736.1477	1096.86	-1245.5809	1592.7288	1110.6696	988.84595	1664.2264	1162.15	957.29956	1700.4845	1183.8547	921.86469	1662.3643	1214.8655	939.8316	1659.4242	1159.8	999.14093	1668.4731	-1579.3677	1058.8661	1670.0459	-1518.7428	1025.0564	1708.083	-1551.1248	1059.3385	1672.1724	-1585.3782	-238.09879	1170.4451	-194.64433	-153.36394	1173.0636	-193.851	-201.06981	1208.9053	-193.9003	-202.33832	1171.2993	-162.71326	-200.58975	1172.8705	-241.64195																																														-1068.5215	210.17285	-1625.0583	-1073.7113	248.81641	-1624.1967	-1321.7288	231.44904	1024.8999	-1320.6998	270.20972	1029.0891	848.17578	183.68651	1196.1826	851.82306	222.45392	1193.9952	1089.0502	202.87906	-1428.1428	1082.9655	241.16541	-1432.401	-1172.0095	1687.0819	-1581.7249	-1170.7649	1648.1021	-1581.5813	-1271.0342	1698.9529	1098.0472	-1271.7865	1659.98	1099.2914	952.66266	1705.8137	1187.0448	972.65259	1734.0155	1168.9875	1026.5291	1669.1942	-1551.5669	1028.0049	1630.2247	-1552.0098	-199.91412	1171.625	-194.2868	-198.70578	1132.6459	-194.69095
488	4.0583333	-1038.2316	214.65878	-1644.1191	-1109.3889	204.14699	-1599.365	-1063.5106	172.93317	-1625.8672	-1054.1783	262.29703	-1634.8611	-1352.6824	235.07089	1003.5529	-1281.3339	227.45955	1052.2386	-1322.7122	193.96411	1020.8579	-1284.3458	287.95633	1052.6217	813.98645	187.74577	1209.4371	892.30719	178.52574	1179.0663	844.55554	145.34879	1198.4138	861.08801	292.26254	1168.2501	1115.8524	209.78799	-1401.6666	1056.3546	194.1403	-1460.2089	1095.3578	162.702	-1423.7749	1069.7377	238.96271	-1425.9388	-1204.611	1686.0979	-1563.0605	-1129.1454	1688.3939	-1606.2733	-1173.1721	1724.4545	-1581.936	-1134.0225	1581.0442	-1603.8114	-1239.5419	1699.005	1119.4357	-1309.4016	1698.8689	1071.9662	-1270.3751	1736.2068	1096.8752	-1245.5734	1592.715	1110.6643	988.87292	1664.2438	1162.1823	957.31873	1700.5483	1183.7991	921.96539	1662.3496	1214.8627	939.84186	1659.4199	1159.8215	999.15326	1668.4656	-1579.3693	1058.6743	1670.0502	-1518.7186	1025.0725	1708.0839	-1551.1134	1059.3407	1672.1666	-1585.3817	-238.08858	1170.434	-194.64519	-153.38449	1173.0455	-193.83839	-201.06068	1208.8915	-193.90982	-202.29512	1171.2728	-162.68849	-200.57573	1172.8826	-241.65706																																														-1068.5142	210.18524	-1625.0729	-1073.7047	248.82951	-1624.2489	-1321.4274	231.73666	1024.8801	-1320.1089	270.49524	1029.0074	848.20197	183.71786	1196.1692	851.8855	222.47726	1193.9016	1089.037	202.7356	-1428.0515	1082.9883	241.04572	-1432.1439	-1171.9395	1687.0918	-1581.7687	-1170.6536	1648.1135	-1581.594	-1271.0736	1698.9435	1098.0099	-1271.8042	1659.9684	1099.1968	952.7771	1705.7734	1186.9103	972.7594	1733.9352	1168.7822	1026.5026	1669.1936	-1551.5009	1027.9358	1630.2218	-1551.8892	-199.90776	1171.6111	-194.28151	-198.70232	1132.6317	-194.67012
489	4.0666667	-1038.2115	214.57846	-1644.0514	-1109.3878	204.1711	-1599.3805	-1063.527	172.96373	-1625.8805	-1054.1603	262.27557	-1634.9313	-1352.7399	235.02704	1003.6622	-1281.3497	227.40599	1052.1841	-1322.6853	193.96545	1020.865	-1284.4039	287.9595	1052.6844	813.94122	187.71458	1209.4331	892.25177	178.46115	1179.0038	844.51917	145.35704	1198.3948	860.88141	292.3558	1167.7744	1115.8961	210.07147	-1401.8107	1056.3776	194.1171	-1460.1403	1095.3331	162.63818	-1423.7622	1069.7633	238.95807	-1425.938	-1204.6315	1686.1088	-1563.0508	-1129.1357	1688.3766	-1606.2551	-1173.1698	1724.4565	-1581.9312	-1134.0156	1581.0369	-1603.8226	-1239.5691	1699.057	1119.4503	-1309.3677	1698.8162	1071.9497	-1270.4141	1736.2493	1096.8876	-1245.566	1592.7246	1110.6729	988.86139	1664.2526	1162.1644	957.31049	1700.5735	1183.7534	921.93933	1662.3503	1214.8864	939.87933	1659.423	1159.8518	999.15033	1668.4669	-1579.3657	1058.6653	1670.0485	-1518.7092	1025.0706	1708.0911	-1551.1244	1059.3423	1672.1755	-1585.3815	-238.08817	1170.4423	-194.64842	-153.37378	1173.0527	-193.85004	-201.05496	1208.9044	-193.90674	-202.30135	1171.2732	-162.69756	-200.59212	1172.8789	-241.64415																																														-1068.4563	210.15608	-1625.0695	-1073.5792	248.80896	-1624.2267	-1321.4302	231.68468	1024.9425	-1320.1406	270.43753	1029.1318	848.16772	183.67027	1196.1337	851.85864	222.42778	1193.8461	1088.9359	202.84464	-1428.2319	1082.8446	241.13013	-1432.4883	-1171.9468	1687.0906	-1581.7552	-1170.671	1648.1118	-1581.5719	-1271.057	1698.9482	1098.0215	-1271.7289	1659.972	1099.2063	952.77405	1705.7957	1186.8573	972.75043	1733.9418	1168.6987	1026.4894	1669.1932	-1551.5021	1027.9109	1630.2211	-1551.8807	-199.90234	1171.6189	-194.28854	-198.69737	1132.6395	-194.6877
490	4.075	-1038.2471	214.60365	-1644.0656	-1109.3757	204.24112	-1599.4045	-1063.4645	172.95903	-1625.8965	-1054.1461	262.31693	-1634.8828	-1352.7086	235.08514	1003.6409	-1281.3044	227.5027	1052.1891	-1322.627	194.00996	1020.8245	-1284.384	287.987	1052.6525	813.95776	187.73936	1209.4855	892.20557	178.49263	1179.0227	844.5379	145.43936	1198.2772	860.91254	292.3743	1168.1403	1115.847	209.76509	-1401.6665	1056.3492	194.10489	-1460.1921	1095.306	162.60315	-1423.7572	1069.7373	238.98116	-1425.8861	-1204.6395	1686.1168	-1563.0414	-1129.1204	1688.385	-1606.2738	-1173.1703	1724.455	-1581.9279	-1134.0182	1581.0511	-1603.8307	-1239.5615	1699.025	1119.4384	-1309.3717	1698.8169	1071.9515	-1270.3295	1736.1379	1096.8562	-1245.5724	1592.7574	1110.6719	988.81604	1664.2179	1162.1689	957.29193	1700.5941	1183.728	921.89319	1662.4178	1214.8706	939.8468	1659.4279	1159.7719	999.15131	1668.4755	-1579.3966	1058.9213	1670.1669	-1518.6725	1025.0699	1708.0887	-1551.1245	1059.332	1672.1729	-1585.3766	-238.09966	1170.4479	-194.64569	-153.38261	1173.0431	-193.85062	-201.058	1208.8943	-193.9019	-202.32762	1171.3086	-162.73109	-200.5851	1172.8575	-241.62471																																														-1068.4084	210.20949	-1625.1273	-1073.5388	248.86235	-1624.3293	-1321.4054	231.76103	1024.9241	-1320.1517	270.51303	1029.1324	848.22742	183.68961	1196.1439	851.96619	222.44975	1193.9821	1088.9999	202.69875	-1428.0748	1082.9746	241.009	-1432.2004	-1171.9495	1687.0985	-1581.7552	-1170.6758	1648.1198	-1581.5752	-1271.0223	1698.9312	1098.0378	-1271.748	1659.9575	1099.2755	952.77472	1705.8065	1186.8171	972.7832	1733.9186	1168.6411	1026.5803	1669.2516	-1551.5295	1028.0958	1630.2832	-1551.9358	-199.91238	1171.6177	-194.28729	-198.71445	1132.6381	-194.69031
491	4.0833333	-1038.2285	214.61037	-1644.0857	-1109.3867	204.20496	-1599.4065	-1063.5225	172.94772	-1625.8594	-1054.1572	262.29874	-1634.8801	-1352.6382	235.12309	1003.5926	-1281.2832	227.47185	1052.2338	-1322.7136	193.96915	1020.8798	-1284.4032	287.99686	1052.666	813.95819	187.71005	1209.4535	892.2326	178.41727	1179.1025	844.54437	145.49588	1198.2451	860.97272	292.4165	1168.2322	1115.9146	210.05731	-1401.8251	1056.3531	194.11864	-1460.1962	1095.2344	162.54066	-1423.739	1069.7279	238.93274	-1425.8975	-1204.6356	1686.1122	-1563.0181	-1129.1422	1688.3834	-1606.2582	-1173.1997	1724.3801	-1581.8547	-1134.0135	1581.0392	-1603.8193	-1239.5691	1699.0616	1119.4559	-1309.5952	1699.1965	1072.0811	-1270.2849	1736.08	1096.8337	-1245.566	1592.7616	1110.6819	988.79193	1664.174	1162.1489	957.31897	1700.5151	1183.8027	921.87872	1662.3662	1214.8065	939.828	1659.4237	1159.799	999.16498	1668.4584	-1579.3544	1058.9131	1670.153	-1518.6687	1025.0765	1708.0835	-1551.1145	1059.3344	1672.1674	-1585.3744	-238.09135	1170.4292	-194.63753	-153.3739	1173.0575	-193.84883	-201.0714	1208.9139	-193.90186	-202.30701	1171.2996	-162.7038	-200.59654	1172.8734	-241.65805																																														-1068.484	210.18613	-1625.0886	-1073.6335	248.83638	-1624.2888	-1321.3942	231.77287	1024.8909	-1320.0416	270.53183	1029.0035	848.26105	183.63757	1196.1525	852.03796	222.39597	1194.0259	1088.9113	202.83122	-1428.2885	1082.9021	241.12213	-1432.6123	-1171.9965	1687.0941	-1581.7126	-1170.7386	1648.1146	-1581.5642	-1271.1886	1699.1224	1098.0643	-1272.1416	1660.1558	1099.3619	952.78625	1705.7487	1186.9211	972.83472	1733.8892	1168.833	1026.5795	1669.2358	-1551.5096	1028.0873	1630.2668	-1551.9059	-199.91069	1171.6136	-194.28207	-198.69774	1132.6345	-194.67941
